<svg xmlns="http://www.w3.org/2000/svg" width="18.264" height="19.801" viewBox="0 0 18.264 19.801"><defs><style>.a,.b{fill:none;}.b{stroke:#525252;}.c,.d{stroke:none;}.d{fill:#525252;}</style></defs><g transform="translate(0.488 0.5)"><g class="a" transform="translate(0 -4.805)"><path class="c" d="M17.776,16v.349A5.576,5.576,0,0,1,12.2,21.925H5.577A5.577,5.577,0,0,1,0,16.349V16Z"/><path class="d" d="M 1.046232223510742 16.99999618530273 C 1.363496780395508 19.21585273742676 3.274313926696777 20.92475509643555 5.576766014099121 20.92475509643555 L 12.1991662979126 20.92475509643555 C 14.50161743164062 20.92475509643555 16.41243743896484 19.21585273742676 16.72970008850098 16.99999618530273 L 1.046232223510742 16.99999618530273 M -3.814697265625e-06 15.99999618530273 L 17.77593612670898 15.99999618530273 L 17.77593612670898 16.3485164642334 C 17.77593612670898 19.42818641662598 15.27913665771484 21.92475509643555 12.1991662979126 21.92475509643555 L 5.576766014099121 21.92475509643555 C 2.496806144714355 21.92475509643555 -3.814697265625e-06 19.42818641662598 -3.814697265625e-06 16.3485164642334 L -3.814697265625e-06 15.99999618530273 Z"/></g><path class="b" d="M-21082.061-21887.008a2.53,2.53,0,0,0-2.525-2.113,2.321,2.321,0,0,0-2.379,2.113v9.281" transform="translate(21086.977 21889.121)"/><g class="a" transform="translate(1.743 2.133)"><path class="c" d="M3.137,0A3.137,3.137,0,0,1,6.274,3.137a.932.932,0,0,1-.034.216A59.915,59.915,0,0,1,.052,3.4.564.564,0,0,1,0,3.137,3.137,3.137,0,0,1,3.137,0Z"/><path class="d" d="M 3.136929512023926 1.000000715255737 C 2.198251247406006 1.000000715255737 1.399026393890381 1.608182191848755 1.112760066986084 2.451215744018555 C 1.429178237915039 2.45569920539856 1.841105461120605 2.458760738372803 2.366869449615479 2.458760738372803 C 3.483110189437866 2.458760738372803 4.477264404296875 2.445208072662354 5.152606010437012 2.426702976226807 C 4.859274387359619 1.596431612968445 4.066473960876465 1.000000715255737 3.136929512023926 1.000000715255737 M 3.136929512023926 7.152557373046875e-07 C 4.869409561157227 7.152557373046875e-07 6.27385950088501 1.40432071685791 6.27385950088501 3.136640548706055 C 6.27385950088501 3.174750566482544 6.270819664001465 3.212020635604858 6.239389419555664 3.352540731430054 C 6.259525775909424 3.421659469604492 4.132216453552246 3.458762645721436 2.366868734359741 3.458762645721436 C 1.110228061676025 3.458762645721436 0.03702831268310547 3.439964056015015 0.05223941802978516 3.400530576705933 C 0.03558969497680664 3.387740612030029 -4.76837158203125e-07 3.26710057258606 -4.76837158203125e-07 3.136640548706055 C -4.76837158203125e-07 1.40432071685791 1.404449462890625 7.152557373046875e-07 3.136929512023926 7.152557373046875e-07 Z"/></g><line class="b" y1="2.788" x2="1.743" transform="translate(1.22 16.248)"/><line class="b" x1="1.743" y1="2.788" transform="translate(14.465 16.248)"/></g></svg>