<svg xmlns="http://www.w3.org/2000/svg" width="21.533" height="17.585" viewBox="0 0 21.533 17.585"><defs><style>.a,.b{fill:#fff;}.a,.c{stroke:#525252;}.c{fill:none;}.d,.e{stroke:none;}.e{fill:#525252;}</style></defs><g transform="translate(0.783)"><path class="a" d="M-21251.379-21873.352h-2.174l-3.309,7.133h19.961l-3.365-7.133h-2.428" transform="translate(21256.861 21877.643)"/><g class="b" transform="translate(3.166)"><path class="d" d="M 13.19879817962646 3.931918144226074 L 0.4999981224536896 3.931918144226074 L 0.4999981224536896 2.820308208465576 L 0.4999981224536896 1.611608147621155 C 0.4999981224536896 0.9986681342124939 0.9986681342124939 0.4999981224536896 1.611618161201477 0.4999981224536896 L 12.08717823028564 0.4999981224536896 C 12.70012855529785 0.4999981224536896 13.19879817962646 0.9986681342124939 13.19879817962646 1.611608147621155 L 13.19879817962646 2.820308208465576 L 13.19879817962646 3.931918144226074 Z"/><path class="e" d="M 1.611618041992188 0.9999980926513672 C 1.274368286132812 0.9999980926513672 0.9999980926513672 1.274368047714233 0.9999980926513672 1.611608028411865 L 0.9999980926513672 2.820308208465576 L 0.9999980926513672 3.431918144226074 L 12.69879817962646 3.431918144226074 L 12.69879817962646 2.820308208465576 L 12.69879817962646 1.611608028411865 C 12.69879817962646 1.274368047714233 12.42442798614502 0.9999980926513672 12.08717823028564 0.9999980926513672 L 1.611618041992188 0.9999980926513672 M 1.611618041992188 -1.9073486328125e-06 L 12.08717823028564 -1.9073486328125e-06 C 12.9772481918335 -1.9073486328125e-06 13.69879817962646 0.7215380668640137 13.69879817962646 1.611608028411865 L 13.69879817962646 2.820308208465576 C 13.69879817962646 3.710378170013428 13.69879817962646 4.431918144226074 13.69879817962646 4.431918144226074 L -1.9073486328125e-06 4.431918144226074 C -1.9073486328125e-06 4.431918144226074 -1.9073486328125e-06 3.710378170013428 -1.9073486328125e-06 2.820308208465576 L -1.9073486328125e-06 1.611608028411865 C -1.9073486328125e-06 0.7215380668640137 0.7215480804443359 -1.9073486328125e-06 1.611618041992188 -1.9073486328125e-06 Z"/></g><g class="b" transform="translate(5.584 2.014)"><path class="d" d="M 7.961020469665527 3.931918144226074 L 0.5000002384185791 3.931918144226074 L 0.5000002384185791 2.215958118438721 C 0.5000002384185791 1.26977813243866 1.269790291786194 0.4999981224536896 2.215980291366577 0.4999981224536896 L 6.245040416717529 0.4999981224536896 C 7.191230297088623 0.4999981224536896 7.961020469665527 1.26977813243866 7.961020469665527 2.215958118438721 L 7.961020469665527 3.931918144226074 Z"/><path class="e" d="M 2.215980052947998 0.9999980926513672 C 1.545490264892578 0.9999980926513672 1 1.545478105545044 1 2.215958118438721 L 1 3.431918144226074 L 7.461020469665527 3.431918144226074 L 7.461020469665527 2.215958118438721 C 7.461020469665527 1.545478105545044 6.915530204772949 0.9999980926513672 6.245039939880371 0.9999980926513672 L 2.215980052947998 0.9999980926513672 M 2.215980052947998 -1.9073486328125e-06 L 6.245039939880371 -1.9073486328125e-06 C 7.468890190124512 -1.9073486328125e-06 8.461020469665527 0.9921181201934814 8.461020469665527 2.215958118438721 C 8.461020469665527 3.43979811668396 8.461020469665527 4.431918144226074 8.461020469665527 4.431918144226074 L 0 4.431918144226074 C 0 4.431918144226074 0 3.43979811668396 0 2.215958118438721 C 0 0.9921181201934814 0.9921302795410156 -1.9073486328125e-06 2.215980052947998 -1.9073486328125e-06 Z"/></g><line class="c" y2="2.487" transform="translate(2.894 15.099)"/><line class="c" y2="2.487" transform="translate(16.571 15.099)"/><path class="c" d="M224.808,417.4V421l-19.958-.317v-3.594" transform="translate(-204.847 -405.974)"/></g></svg>