<?xml version="1.0" encoding="utf-8"?>
<!-- Generator: Adobe Illustrator 15.0.0, SVG Export Plug-In . SVG Version: 6.00 Build 0)  -->
<!DOCTYPE svg PUBLIC "-//W3C//DTD SVG 1.1//EN" "http://www.w3.org/Graphics/SVG/1.1/DTD/svg11.dtd">
<svg xmlns="http://www.w3.org/2000/svg" xmlns:xlink="http://www.w3.org/1999/xlink" version="1.1" id="Слой_1" x="0px" y="0px" width="50px" height="50px" viewBox="0 0 50 50" enable-background="new 0 0 50 50" xml:space="preserve" fill="#000000">
<rect x="32" y="12" width="2" height="2" fill="#000000"/>
<rect x="28" y="12" width="2" height="2" fill="#000000"/>
<rect x="24" y="12" width="2" height="2" fill="#000000"/>
<path d="M39,4H11C9.346,4,8,5.346,8,7v36c0,1.654,1.346,3,3,3h28c1.654,0,3-1.346,3-3V7C42,5.346,40.654,4,39,4z M18,40h-4v-4h4V40z   M18,34h-4v-4h4V34z M18,28h-4v-4h4V28z M24,40h-4v-4h4V40z M24,34h-4v-4h4V34z M24,28h-4v-4h4V28z M30,40h-4v-4h4V40z M30,34h-4v-4  h4V34z M30,28h-4v-4h4V28z M36,40h-4v-4h4V40z M36,34h-4v-4h4V34z M36,28h-4v-4h4V28z M36,17H14V9h22V17z" fill="#000000"/>
</svg>
