<?xml version="1.0" encoding="utf-8"?>
<!-- Generator: Adobe Illustrator 18.1.1, SVG Export Plug-In . SVG Version: 6.00 Build 0)  -->
<svg xmlns="http://www.w3.org/2000/svg" xmlns:xlink="http://www.w3.org/1999/xlink" version="1.1" id="Layer_1" x="0px" y="0px" viewBox="0 0 50 50" enable-background="new 0 0 50 50" xml:space="preserve" fill="#000000">
<path fill="none" stroke="#000000" stroke-width="2" stroke-miterlimit="10" d="M9,7c0-1.1,0.9-2,2-2h28c1.1,0,2,0.9,2,2v36  c0,1.1-0.9,2-2,2H11c-1.1,0-2-0.9-2-2V7z"/>
<rect x="13" y="9" fill="none" stroke="#000000" stroke-width="2" stroke-miterlimit="10" width="24" height="8"/>
<rect x="32" y="12" width="2" height="2" fill="#000000"/>
<rect x="28" y="12" width="2" height="2" fill="#000000"/>
<rect x="24" y="12" width="2" height="2" fill="#000000"/>
<rect x="13" y="23" fill="none" stroke="#000000" stroke-width="2" stroke-linejoin="round" stroke-miterlimit="10" width="24" height="18"/>
<line fill="none" stroke="#000000" stroke-width="2" stroke-linejoin="round" stroke-miterlimit="10" x1="25" y1="41" x2="25" y2="23"/>
<line fill="none" stroke="#000000" stroke-width="2" stroke-linejoin="round" stroke-miterlimit="10" x1="19" y1="41" x2="19" y2="23"/>
<line fill="none" stroke="#000000" stroke-width="2" stroke-linejoin="round" stroke-miterlimit="10" x1="31" y1="41" x2="31" y2="23"/>
<line fill="none" stroke="#000000" stroke-width="2" stroke-linejoin="round" stroke-miterlimit="10" x1="13" y1="35" x2="37" y2="35"/>
<line fill="none" stroke="#000000" stroke-width="2" stroke-linejoin="round" stroke-miterlimit="10" x1="13" y1="29" x2="37" y2="29"/>
</svg>
