<?xml version="1.0" encoding="utf-8"?>
<!-- Generator: Adobe Illustrator 19.1.1, SVG Export Plug-In . SVG Version: 6.00 Build 0)  -->
<svg xmlns="http://www.w3.org/2000/svg" xmlns:xlink="http://www.w3.org/1999/xlink" version="1.1" x="0px" y="0px" viewBox="1 -1 50 50" style="enable-background:new 1 -1 50 50" xml:space="preserve" fill="#000000">
<polygon points="36,4 36,7.016 42,13.266 42,4 " fill="#000000"/>
<path d="M50.611,24.251l-23.89-24.89C26.533-0.836,26.272-0.947,26-0.947s-0.533,0.111-0.722,0.308L1.389,24.25  c-0.383,0.398-0.37,1.031,0.029,1.414c0.398,0.381,1.031,0.37,1.414-0.029L6,22.334V49h40V22.335l3.168,3.301  c0.196,0.205,0.459,0.308,0.722,0.308c0.249,0,0.499-0.093,0.692-0.278C50.98,25.282,50.993,24.649,50.611,24.251z M31,47H21V28h10  V47z" fill="#000000"/>
</svg>
