<?xml version="1.0" encoding="utf-8"?>
<!-- Generator: Adobe Illustrator 19.2.1, SVG Export Plug-In . SVG Version: 6.00 Build 0)  -->
<svg xmlns="http://www.w3.org/2000/svg" xmlns:xlink="http://www.w3.org/1999/xlink" version="1.1" id="Layer_1" x="0px" y="0px" viewBox="0 0 50 50" style="enable-background:new 0 0 50 50" xml:space="preserve" fill="#000000">
<path style="fill:none;stroke:#000000;stroke-width:2;stroke-linecap:round;stroke-linejoin:round;stroke-miterlimit:10" d="  M22,24.5L22,24.5c0,1.381-1.119,2.5-2.5,2.5H17c-1.105,0-2,0.895-2,2v0c0,1.105,0.895,2,2,2h16c1.105,0,2-0.895,2-2v0  c0-1.105-0.895-2-2-2h-2.5c-1.381,0-2.5-1.119-2.5-2.5v0c0-1.381,1.119-2.5,2.5-2.5H39l0-5h6v28.5c0,0.828-0.672,1.5-1.5,1.5h-37  C5.672,47,5,46.328,5,45.5V17h6l0,5h8.5C20.881,22,22,23.119,22,24.5z" fill="#000000"/>
<polyline style="fill:none;stroke:#000000;stroke-width:2;stroke-miterlimit:10" points="45,19 49,19 49,23 45,23 " fill="#000000"/>
<polyline style="fill:none;stroke:#000000;stroke-width:2;stroke-miterlimit:10" points="5,23 1,23 1,19 5,19 " fill="#000000"/>
<polyline style="fill:none;stroke:#000000;stroke-width:2;stroke-linecap:round;stroke-linejoin:round;stroke-miterlimit:10" points="  11,19 11,3 39,3 39,19 " fill="#000000"/>
<path d="M23,36L23,36c-0.552,0-1-0.448-1-1l0,0c0-0.552,0.448-1,1-1h0c0.552,0,1,0.448,1,1l0,0C24,35.552,23.552,36,23,36z" fill="#000000"/>
<path d="M27,36L27,36c-0.552,0-1-0.448-1-1l0,0c0-0.552,0.448-1,1-1h0c0.552,0,1,0.448,1,1l0,0C28,35.552,27.552,36,27,36z" fill="#000000"/>
<path d="M31,36L31,36c-0.552,0-1-0.448-1-1l0,0c0-0.552,0.448-1,1-1h0c0.552,0,1,0.448,1,1l0,0C32,35.552,31.552,36,31,36z" fill="#000000"/>
<path d="M35,36L35,36c-0.552,0-1-0.448-1-1l0,0c0-0.552,0.448-1,1-1l0,0c0.552,0,1,0.448,1,1l0,0C36,35.552,35.552,36,35,36z" fill="#000000"/>
<path d="M11,36L11,36c-0.552,0-1-0.448-1-1l0,0c0-0.552,0.448-1,1-1h0c0.552,0,1,0.448,1,1l0,0C12,35.552,11.552,36,11,36z" fill="#000000"/>
<path d="M15,36L15,36c-0.552,0-1-0.448-1-1l0,0c0-0.552,0.448-1,1-1h0c0.552,0,1,0.448,1,1l0,0C16,35.552,15.552,36,15,36z" fill="#000000"/>
<path d="M19,36L19,36c-0.552,0-1-0.448-1-1l0,0c0-0.552,0.448-1,1-1h0c0.552,0,1,0.448,1,1l0,0C20,35.552,19.552,36,19,36z" fill="#000000"/>
<path d="M25,40L25,40c-0.552,0-1-0.448-1-1l0,0c0-0.552,0.448-1,1-1h0c0.552,0,1,0.448,1,1l0,0C26,39.552,25.552,40,25,40z" fill="#000000"/>
<path d="M29,40L29,40c-0.552,0-1-0.448-1-1l0,0c0-0.552,0.448-1,1-1h0c0.552,0,1,0.448,1,1l0,0C30,39.552,29.552,40,29,40z" fill="#000000"/>
<path d="M33,40L33,40c-0.552,0-1-0.448-1-1l0,0c0-0.552,0.448-1,1-1l0,0c0.552,0,1,0.448,1,1l0,0C34,39.552,33.552,40,33,40z" fill="#000000"/>
<path d="M37,40L37,40c-0.552,0-1-0.448-1-1l0,0c0-0.552,0.448-1,1-1l0,0c0.552,0,1,0.448,1,1l0,0C38,39.552,37.552,40,37,40z" fill="#000000"/>
<path d="M17,40L17,40c-0.552,0-1-0.448-1-1l0,0c0-0.552,0.448-1,1-1h0c0.552,0,1,0.448,1,1l0,0C18,39.552,17.552,40,17,40z" fill="#000000"/>
<path d="M13,40L13,40c-0.552,0-1-0.448-1-1l0,0c0-0.552,0.448-1,1-1h0c0.552,0,1,0.448,1,1l0,0C14,39.552,13.552,40,13,40z" fill="#000000"/>
<path d="M21,40L21,40c-0.552,0-1-0.448-1-1l0,0c0-0.552,0.448-1,1-1h0c0.552,0,1,0.448,1,1l0,0C22,39.552,21.552,40,21,40z" fill="#000000"/>
<path d="M39,36L39,36c-0.552,0-1-0.448-1-1l0,0c0-0.552,0.448-1,1-1l0,0c0.552,0,1,0.448,1,1l0,0C40,35.552,39.552,36,39,36z" fill="#000000"/>
<path d="M34,44H16c-0.552,0-1-0.448-1-1l0,0c0-0.552,0.448-1,1-1h18c0.552,0,1,0.448,1,1l0,0C35,43.552,34.552,44,34,44z" fill="#000000"/>
<line style="fill:none;stroke:#000000;stroke-width:2;stroke-miterlimit:10" x1="13" y1="17" x2="37" y2="17" fill="#000000"/>
<circle cx="29" cy="17" r="2" fill="#000000"/>
<circle cx="21" cy="17" r="2" fill="#000000"/>
</svg>
