<?xml version="1.0" encoding="utf-8"?>
<!-- Generator: Adobe Illustrator 19.1.1, SVG Export Plug-In . SVG Version: 6.00 Build 0)  -->
<svg xmlns="http://www.w3.org/2000/svg" xmlns:xlink="http://www.w3.org/1999/xlink" version="1.1" id="Layer_1" x="0px" y="0px" viewBox="0 0 50 50" enable-background="new 0 0 50 50" xml:space="preserve" fill="#000000">
<rect x="48" y="18" width="2" height="6" fill="#000000"/>
<rect y="18" width="2" height="6" fill="#000000"/>
<polyline fill="none" stroke="#000000" stroke-width="2" stroke-linecap="round" stroke-linejoin="round" stroke-miterlimit="10" points="  11,19 11,3 39,3 39,19 "/>
<path d="M45,16h-6c-0.553,0-1,0.448-1,1v4h-7.5c-1.93,0-3.5,1.57-3.5,3.5s1.57,3.5,3.5,3.5H33c0.552,0,1,0.448,1,1s-0.448,1-1,1H17  c-0.551,0-1-0.448-1-1s0.449-1,1-1h2.5c1.93,0,3.5-1.57,3.5-3.5S21.43,21,19.5,21H12v-4c0-0.552-0.448-1-1-1H5c-0.552,0-1,0.448-1,1  v28.5C4,46.879,5.122,48,6.5,48h37c1.379,0,2.5-1.121,2.5-2.5V17C46,16.448,45.553,16,45,16z M33,38c0.552,0,1,0.448,1,1  s-0.448,1-1,1s-1-0.448-1-1S32.448,38,33,38z M31,34c0.552,0,1,0.448,1,1s-0.448,1-1,1s-1-0.448-1-1S30.448,34,31,34z M29,38  c0.552,0,1,0.448,1,1s-0.448,1-1,1s-1-0.448-1-1S28.448,38,29,38z M27,34c0.552,0,1,0.448,1,1s-0.448,1-1,1s-1-0.448-1-1  S26.448,34,27,34z M25,38c0.552,0,1,0.448,1,1s-0.448,1-1,1s-1-0.448-1-1S24.448,38,25,38z M23,34c0.552,0,1,0.448,1,1s-0.448,1-1,1  s-1-0.448-1-1S22.448,34,23,34z M21,38c0.552,0,1,0.448,1,1s-0.448,1-1,1s-1-0.448-1-1S20.448,38,21,38z M19,34c0.552,0,1,0.448,1,1  s-0.448,1-1,1s-1-0.448-1-1S18.448,34,19,34z M17,38c0.552,0,1,0.448,1,1s-0.448,1-1,1s-1-0.448-1-1S16.448,38,17,38z M11,36  c-0.552,0-1-0.448-1-1s0.448-1,1-1s1,0.448,1,1S11.552,36,11,36z M13,40c-0.552,0-1-0.448-1-1s0.448-1,1-1s1,0.448,1,1  S13.552,40,13,40z M14,35c0-0.552,0.448-1,1-1s1,0.448,1,1s-0.448,1-1,1S14,35.552,14,35z M34,44H16c-0.552,0-1-0.448-1-1  s0.448-1,1-1h18c0.552,0,1,0.448,1,1S34.552,44,34,44z M35,36c-0.552,0-1-0.448-1-1s0.448-1,1-1s1,0.448,1,1S35.552,36,35,36z   M37,40c-0.552,0-1-0.448-1-1s0.448-1,1-1s1,0.448,1,1S37.552,40,37,40z M39,36c-0.552,0-1-0.448-1-1s0.448-1,1-1s1,0.448,1,1  S39.552,36,39,36z" fill="#000000"/>
<line fill="none" stroke="#000000" stroke-width="2" stroke-miterlimit="10" x1="13" y1="17" x2="37" y2="17"/>
<circle cx="29" cy="17" r="2" fill="#000000"/>
<circle cx="21" cy="17" r="2" fill="#000000"/>
</svg>
